<svg width="20" height="24" viewBox="0 0 20 24" fill="none" xmlns="http://www.w3.org/2000/svg">
<path d="M17 8.5L16.02 18.2977C15.8718 19.7828 15.7983 20.5248 15.46 21.086C15.1633 21.58 14.7268 21.975 14.2058 22.2212C13.6143 22.5 12.87 22.5 11.3767 22.5H8.62333C7.13117 22.5 6.38567 22.5 5.79417 22.22C5.27272 21.974 4.83588 21.579 4.53883 21.0848C4.20283 20.5248 4.12817 19.7828 3.97883 18.2977L3 8.5M11.75 16.0833V10.25M8.25 16.0833V10.25M1.25 5.58333H6.63417M6.63417 5.58333L7.0845 2.466C7.21517 1.899 7.6865 1.5 8.22783 1.5H11.7722C12.3135 1.5 12.7837 1.899 12.9155 2.466L13.3658 5.58333M6.63417 5.58333H13.3658M13.3658 5.58333H18.75" stroke="#E3000F" stroke-width="1.5" stroke-linecap="round" stroke-linejoin="round"/>
</svg>
