<svg width="25" height="25" viewBox="0 0 25 25" fill="none" xmlns="http://www.w3.org/2000/svg">
<path d="M12.4995 17.7085C11.9471 17.7085 11.4172 17.928 11.0266 18.3186C10.636 18.7092 10.4165 19.2391 10.4165 19.7915C10.4165 20.3439 10.636 20.8738 11.0266 21.2644C11.4172 21.655 11.9471 21.8745 12.4995 21.8745C13.052 21.8745 13.5818 21.655 13.9724 21.2644C14.363 20.8738 14.5825 20.3439 14.5825 19.7915C14.5825 19.2391 14.363 18.7092 13.9724 18.3186C13.5818 17.928 13.052 17.7085 12.4995 17.7085ZM12.4995 17.7085L12.5 5.2085M11.4585 5.2085H13.5415V3.125H11.4585V5.2085Z" stroke="#333333" stroke-width="1.5" stroke-linecap="round" stroke-linejoin="round"/>
<path d="M10.4165 7.8125L14.5835 8.854M10.4165 10.9375L14.5835 11.979M10.4165 14.0625L14.5835 15.104" stroke="#BEBCBD" stroke-linecap="round" stroke-linejoin="round"/>
</svg>
