<svg width="24" height="24" viewBox="0 0 24 24" fill="none" xmlns="http://www.w3.org/2000/svg">
<path fill-rule="evenodd" clip-rule="evenodd" d="M16.612 3.95601C13.865 2.73501 10.562 4.23401 10.232 7.42901C10.0772 8.94775 9.99975 10.4734 10 12C10 13.73 10.097 15.269 10.231 16.57C10.561 19.766 13.865 21.265 16.612 20.044L16.837 19.944C18.3737 19.2609 19.6793 18.1469 20.5956 16.7368C21.5119 15.3267 21.9996 13.6812 21.9996 11.9995C21.9996 10.3179 21.5119 8.67229 20.5956 7.26221C19.6793 5.85213 18.3737 4.73807 16.837 4.05501L16.612 3.95501V3.95601ZM12.221 7.63501C12.391 5.99301 14.104 5.03001 15.8 5.78301L16.025 5.88301C17.2082 6.40891 18.2135 7.26669 18.9191 8.35241C19.6247 9.43813 20.0002 10.7052 20.0002 12C20.0002 13.2948 19.6247 14.5619 18.9191 15.6476C18.2135 16.7333 17.2082 17.5911 16.025 18.117L15.8 18.217C14.104 18.97 12.39 18.007 12.22 16.365C12.0727 14.9147 11.9993 13.4578 12 12C12 10.344 12.094 8.87401 12.221 7.63501ZM3 6.00001C2.73478 6.00001 2.48043 6.10536 2.29289 6.2929C2.10536 6.48044 2 6.73479 2 7.00001C2 7.26522 2.10536 7.51958 2.29289 7.70711C2.48043 7.89465 2.73478 8.00001 3 8.00001H8C8.26522 8.00001 8.51957 7.89465 8.70711 7.70711C8.89464 7.51958 9 7.26522 9 7.00001C9 6.73479 8.89464 6.48044 8.70711 6.2929C8.51957 6.10536 8.26522 6.00001 8 6.00001H3ZM3 11C2.73478 11 2.48043 11.1054 2.29289 11.2929C2.10536 11.4804 2 11.7348 2 12C2 12.2652 2.10536 12.5196 2.29289 12.7071C2.48043 12.8946 2.73478 13 3 13H8C8.26522 13 8.51957 12.8946 8.70711 12.7071C8.89464 12.5196 9 12.2652 9 12C9 11.7348 8.89464 11.4804 8.70711 11.2929C8.51957 11.1054 8.26522 11 8 11H3ZM2 17C2 16.7348 2.10536 16.4804 2.29289 16.2929C2.48043 16.1054 2.73478 16 3 16H8C8.26522 16 8.51957 16.1054 8.70711 16.2929C8.89464 16.4804 9 16.7348 9 17C9 17.2652 8.89464 17.5196 8.70711 17.7071C8.51957 17.8946 8.26522 18 8 18H3C2.73478 18 2.48043 17.8946 2.29289 17.7071C2.10536 17.5196 2 17.2652 2 17Z" fill="#333333"/>
</svg>
