<svg width="12" height="16" viewBox="0 0 12 16" fill="none" xmlns="http://www.w3.org/2000/svg">
<path fill-rule="evenodd" clip-rule="evenodd" d="M5.99979 14.8914L6.54065 14.282C7.15436 13.5797 7.70665 12.9114 8.19751 12.2771L8.60293 11.7423C10.2961 9.46168 11.1426 7.65225 11.1426 6.31397C11.1426 3.45797 8.84036 1.14282 5.99979 1.14282C3.15922 1.14282 0.856934 3.45797 0.856934 6.31397C0.856934 7.65225 1.70351 9.46196 3.39665 11.7431L3.80208 12.278C4.50283 13.1757 5.23588 14.0468 5.99979 14.8914Z" stroke="#333333" stroke-opacity="0.5" stroke-linecap="round" stroke-linejoin="round"/>
<path d="M5.99979 8.42854C7.18326 8.42854 8.14265 7.46915 8.14265 6.28568C8.14265 5.10221 7.18326 4.14282 5.99979 4.14282C4.81632 4.14282 3.85693 5.10221 3.85693 6.28568C3.85693 7.46915 4.81632 8.42854 5.99979 8.42854Z" stroke="#333333" stroke-opacity="0.5" stroke-linecap="round" stroke-linejoin="round"/>
</svg>
