<svg width="14" height="12" viewBox="0 0 14 12" fill="none" xmlns="http://www.w3.org/2000/svg">
<path d="M1.462 11.25C1.1165 11.25 0.82825 11.1345 0.59725 10.9035C0.36625 10.6725 0.2505 10.384 0.25 10.038V1.962C0.25 1.6165 0.36575 1.32825 0.59725 1.09725C0.82875 0.86625 1.11675 0.7505 1.46125 0.75H12.5387C12.8837 0.75 13.1718 0.86575 13.4028 1.09725C13.6338 1.32875 13.7495 1.617 13.75 1.962V10.0388C13.75 10.3838 13.6343 10.672 13.4028 10.9035C13.1713 11.135 12.8833 11.2505 12.5387 11.25H1.462ZM13 2.16375L7.336 5.87175C7.283 5.89925 7.2295 5.9225 7.1755 5.9415C7.121 5.96 7.0625 5.96925 7 5.96925C6.9375 5.96925 6.879 5.96 6.8245 5.9415C6.77 5.923 6.7165 5.89975 6.664 5.87175L1 2.163V10.038C1 10.173 1.04325 10.2838 1.12975 10.3703C1.21625 10.4568 1.327 10.5 1.462 10.5H12.5387C12.6733 10.5 12.7837 10.4568 12.8702 10.3703C12.9567 10.2838 13 10.173 13 10.038V2.16375ZM7 5.25L12.769 1.5H1.231L7 5.25ZM1 2.322V1.71375V1.73925V1.5V1.74V1.701V2.322Z" fill="#333333" fill-opacity="0.5"/>
</svg>
