<svg width="15" height="15" viewBox="0 0 15 15" fill="none" xmlns="http://www.w3.org/2000/svg">
<path d="M13.625 14.5C13.9234 14.5 14.2095 14.3815 14.4205 14.1705C14.6315 13.9595 14.75 13.6734 14.75 13.375V10.75C14.75 10.4516 14.6315 10.1655 14.4205 9.9545C14.2095 9.74353 13.9234 9.625 13.625 9.625C12.7475 9.625 11.885 9.49 11.06 9.2125C10.8628 9.15024 10.6522 9.14319 10.4513 9.19211C10.2503 9.24103 10.0666 9.34405 9.92 9.49L8.84 10.57C6.97418 9.55181 5.44069 8.01832 4.4225 6.1525L5.495 5.08C5.8025 4.7875 5.915 4.3525 5.78 3.9325C5.51 3.115 5.375 2.2525 5.375 1.375C5.375 1.07663 5.25647 0.790483 5.0455 0.579505C4.83452 0.368526 4.54837 0.25 4.25 0.25H1.625C1.32663 0.25 1.04048 0.368526 0.829505 0.579505C0.618526 0.790483 0.5 1.07663 0.5 1.375C0.5 8.6125 6.3875 14.5 13.625 14.5ZM1.625 1H4.25C4.34946 1 4.44484 1.03951 4.51516 1.10984C4.58549 1.18016 4.625 1.27554 4.625 1.375C4.625 2.335 4.775 3.2725 5.0675 4.165C5.105 4.27 5.0975 4.42 4.9775 4.54L3.5 6.01C4.7375 8.4325 6.5525 10.2475 8.9825 11.5L10.445 10.0225C10.55 9.9175 10.6925 9.8875 10.8275 9.925C11.7275 10.225 12.665 10.375 13.625 10.375C13.7245 10.375 13.8198 10.4145 13.8902 10.4848C13.9605 10.5552 14 10.6505 14 10.75V13.375C14 13.4745 13.9605 13.5698 13.8902 13.6402C13.8198 13.7105 13.7245 13.75 13.625 13.75C6.8 13.75 1.25 8.2 1.25 1.375C1.25 1.27554 1.28951 1.18016 1.35984 1.10984C1.43016 1.03951 1.52554 1 1.625 1Z" fill="#333333" fill-opacity="0.5"/>
</svg>
