<svg width="22" height="22" viewBox="0 0 22 22" fill="none" xmlns="http://www.w3.org/2000/svg">
<path d="M18.2875 19.25C16.3778 19.25 14.491 18.8338 12.6271 18.0015C10.7632 17.1692 9.06736 15.9888 7.53958 14.4604C6.01181 12.932 4.83175 11.2362 3.99942 9.37292C3.16708 7.50964 2.75061 5.62283 2.75 3.7125C2.75 3.4375 2.84167 3.20833 3.025 3.025C3.20833 2.84167 3.4375 2.75 3.7125 2.75H7.425C7.63889 2.75 7.82986 2.82272 7.99792 2.96817C8.16597 3.11361 8.26528 3.28533 8.29583 3.48333L8.89167 6.69167C8.92222 6.93611 8.91458 7.14236 8.86875 7.31042C8.82292 7.47847 8.73889 7.62361 8.61667 7.74583L6.39375 9.99167C6.69931 10.5569 7.062 11.103 7.48183 11.6298C7.90167 12.1565 8.36397 12.6647 8.86875 13.1542C9.34236 13.6278 9.83889 14.0672 10.3583 14.4723C10.8778 14.8775 11.4278 15.2478 12.0083 15.5833L14.1625 13.4292C14.3 13.2917 14.4797 13.1887 14.7015 13.1202C14.9233 13.0518 15.1409 13.0326 15.3542 13.0625L18.5167 13.7042C18.7306 13.7653 18.9062 13.8762 19.0438 14.0369C19.1812 14.1976 19.25 14.377 19.25 14.575V18.2875C19.25 18.5625 19.1583 18.7917 18.975 18.975C18.7917 19.1583 18.5625 19.25 18.2875 19.25Z" fill="white"/>
</svg>
